/* XPM */
static char *result[] = {
/* columns rows colors chars-per-pixel */
"32 32 106 2 ",
"   c #38202F",
".  c #3A2230",
"X  c #3B2330",
"o  c #3C2330",
"O  c #3C2430",
"+  c #3D2430",
"@  c #3D2530",
"#  c #3E2530",
"$  c #3F2631",
"%  c #472D32",
"&  c #5E3F36",
"*  c #614137",
"=  c #6C4A39",
"-  c #6D4B39",
";  c #6D4C39",
":  c #6E4C39",
">  c #6D4C3A",
",  c #6E4C3A",
"<  c #90643D",
"1  c #91683F",
"2  c #AB7C44",
"3  c #AB7D45",
"4  c #E28527",
"5  c #E38628",
"6  c #E68C2D",
"7  c #E68D2D",
"8  c #E68D2E",
"9  c #E68E2E",
"0  c #E78E2E",
"q  c #E78F2E",
"w  c #EA9330",
"e  c #EB9330",
"r  c #EB9331",
"t  c #EB9431",
"y  c #EC9431",
"u  c #E69738",
"i  c #E79839",
"p  c #EC9B38",
"a  c #ED9B38",
"s  c #ED9D39",
"d  c #ED9D3A",
"f  c #EE9E3A",
"g  c #EE9E3B",
"h  c #F09E39",
"j  c #F09F3A",
"k  c #F1A03A",
"l  c #F1A03B",
"z  c #F1A13B",
"x  c #F0A33E",
"c  c #F1A43F",
"v  c #F1A53F",
"b  c #CF994A",
"n  c #CF994B",
"m  c #CF9A4B",
"M  c #D99A45",
"N  c #D99B45",
"B  c #D19B4B",
"V  c #D09C4B",
"C  c #D19C4B",
"Z  c #D29C4B",
"A  c #D19C4C",
"S  c #D19D4C",
"D  c #D39D4C",
"F  c #DEA54D",
"G  c #DCA64D",
"H  c #F1A540",
"J  c #F1A640",
"K  c #F2A741",
"L  c #F4AA44",
"P  c #F4AB44",
"I  c #FAB248",
"U  c #FAB348",
"Y  c #F8B44B",
"T  c #FAB54B",
"R  c #FBB64B",
"E  c #FBB74B",
"W  c #FCB448",
"Q  c #FCB549",
"!  c #FCB649",
"~  c #FEB649",
"^  c #FCB64B",
"/  c #FCB74B",
"(  c #F8B54C",
")  c #F9B54C",
"_  c #FAB74C",
"`  c #FBB74C",
"'  c #FCB74C",
"]  c #FDB84B",
"[  c #FCB84D",
"{  c #FFBA4C",
"}  c #F5B952",
"|  c #FCBC51",
" . c #FDBE51",
".. c #FFBE51",
"X. c #FEBF51",
"o. c #FFBF51",
"O. c #FCBD52",
"+. c #FDBE53",
"@. c #FFBF52",
"#. c #FFC051",
"$. c #FFC052",
"%. c #FFC254",
"&. c #FFC354",
"*. c #FFC255",
"=. c #FFC555",
"-. c None",
/* pixels */
"-.-.-.-.-.-.-.-.-.-.-.-.-.-.-.-.-.-.-.-.-.-.-.-.-.-.-.-.-.-.-.-.",
"-.-.-.-.-.-.-.-.-.-.-.-.-.-.-.-.-.-.-.-.-.-.-.-.-.-.-.-.-.-.-.-.",
"-.-.-.-.-.-.-.-.-.-.-.-.-.-.-.-.-.-.-.-.-.-.-.-.-.-.-.-.-.-.-.-.",
"-.-.-.-.-.-.-.-.-.-.-.-.-.-.-.-.-.-.-.-.-.-.-.-.-.-.-.-.-.-.-.-.",
"-.-.-.-.-.-.-.-.-.-.$ $ $ $ $ $ $ $ $ $ $ $ -.-.-.-.-.-.-.-.-.-.",
"-.-.-.-.-.-.-.-.-.-.$ # O o o o o o o O # $ -.-.-.-.-.-.-.-.-.-.",
"-.-.-.-.-.-.-.-.$ $ $ @ X . . . . . . X @ $ $ $ -.-.-.-.-.-.-.-.",
"-.-.-.-.-.-.-.-.$ + X % * , ; - = - : * % X + $ -.-.-.-.-.-.-.-.",
"-.-.-.-.-.-.$ $ $ X   & 3 D A m n B D 3 &   X $ $ $ -.-.-.-.-.-.",
"-.-.-.-.-.-.$ # @ % & < N ~ W E X.$.{ M < & % @ # $ -.-.-.-.-.-.",
"-.-.-.-.-.-.$ O X * 3 N i y e j _ ` k u M 3 * X O $ -.-.-.-.-.-.",
"-.-.-.-.-.-.$ o . > S ! t 4 7 p L H 7 t Q S > . o $ -.-.-.-.-.-.",
"-.-.-.-.-.-.$ o . ; A W e 7 H P a 9 4 t Q A ; . o $ -.-.-.-.-.-.",
"-.-.-.-.-.-.$ o . - m / j p P K q 4 9 l ' m - . o $ -.-.-.-.-.-.",
"-.-.-.-.-.-.$ o . = n o.` L a q 5 9 v ` ..n = . o $ -.-.-.-.-.-.",
"-.-.-.-.-.-.$ o . = n @.[ J 9 4 9 f ) *.%.b = . o $ -.-.-.-.-.-.",
"-.-.-.-.-.-.$ o . - m ' z 0 5 9 v ( O.*.%.b = . o $ -.-.-.-.-.-.",
"-.-.-.-.-.-.$ o . - m U r 4 8 g ) O.Y T ..n = . o $ -.-.-.-.-.-.",
"-.-.-.-.-.-.$ o . - m I w 7 c ) +.( d h ^ m - . o $ -.-.-.-.-.-.",
"-.-.-.-.-.-.$ o . - C ] j s Y O.( x 6 e W A ; . o $ -.-.-.-.-.-.",
"-.-.-.-.-.-.$ o . - V #.R Y | Y d 6 4 t ! S > . o $ -.-.-.-.-.-.",
"-.-.-.-.-.-.$ O X * 2 F } %.%.T h e y i N 3 * X O $ -.-.-.-.-.-.",
"-.-.-.-.-.-.$ # @ % & 1 G =.&. .R W ~ N < & % @ # $ -.-.-.-.-.-.",
"-.-.-.-.-.-.$ $ $ X   & 2 Z B n m A D 3 &   X $ $ $ -.-.-.-.-.-.",
"-.-.-.-.-.-.-.-.$ + X % * - - = - ; , * % X + $ -.-.-.-.-.-.-.-.",
"-.-.-.-.-.-.-.-.$ $ $ @ X . . . . . . X @ $ $ $ -.-.-.-.-.-.-.-.",
"-.-.-.-.-.-.-.-.-.-.$ # O o o o o o o O # $ -.-.-.-.-.-.-.-.-.-.",
"-.-.-.-.-.-.-.-.-.-.$ $ $ $ $ $ $ $ $ $ $ $ -.-.-.-.-.-.-.-.-.-.",
"-.-.-.-.-.-.-.-.-.-.-.-.-.-.-.-.-.-.-.-.-.-.-.-.-.-.-.-.-.-.-.-.",
"-.-.-.-.-.-.-.-.-.-.-.-.-.-.-.-.-.-.-.-.-.-.-.-.-.-.-.-.-.-.-.-.",
"-.-.-.-.-.-.-.-.-.-.-.-.-.-.-.-.-.-.-.-.-.-.-.-.-.-.-.-.-.-.-.-.",
"-.-.-.-.-.-.-.-.-.-.-.-.-.-.-.-.-.-.-.-.-.-.-.-.-.-.-.-.-.-.-.-."
};
