/* XPM */
static char *result[] = {
/* columns rows colors chars-per-pixel */
"32 32 74 1 ",
"  c #3D2531",
". c #3F2832",
"X c #412C33",
"o c #4A2F33",
"O c #433035",
"+ c #4C463C",
"@ c #4E4C3E",
"# c #634337",
"$ c #634338",
"% c #714F3A",
"& c #72503A",
"* c #514F40",
"= c #525240",
"- c #546444",
"; c #5C6D49",
": c #5D714B",
"> c #60734E",
", c #647D4F",
"< c #617651",
"1 c #657E51",
"2 c #94673D",
"3 c #966C40",
"4 c #A57743",
"5 c #A57843",
"6 c #639252",
"7 c #6A9756",
"8 c #699855",
"9 c #6D9B59",
"0 c #729B5A",
"q c #6AA558",
"w c #6DAD5C",
"e c #75A55D",
"r c #74AB5E",
"t c #72B35E",
"y c #75A662",
"u c #77AA62",
"i c #77A969",
"p c #6EB160",
"a c #75B761",
"s c #7AB662",
"d c #77B861",
"f c #7DBE64",
"g c #7BB36A",
"h c #7DBF6B",
"j c #7EC066",
"k c #E58B2B",
"l c #E7902F",
"z c #E8902F",
"x c #EC9633",
"c c #E6983A",
"v c #ED9D39",
"b c #EFA13C",
"n c #F1A23D",
"m c #80BD66",
"M c #CA964A",
"N c #D39644",
"B c #D7A24C",
"V c #D8A04C",
"C c #F4AC45",
"Z c #F7B047",
"A c #F7B34A",
"S c #F9B44B",
"D c #F8B94F",
"F c #F3B751",
"G c #FBBB51",
"H c #82C367",
"J c #84C569",
"K c #84C96D",
"L c #84CC73",
"P c #87D076",
"I c #89D377",
"U c #8AD57A",
"Y c #8BD87D",
"T c #FEC153",
/* pixels */
"JJJJJJJJJHJJJJJJJJJKJJJJJJJJJJJJ",
"JJJJKKKJKJKKKKJJJJJJJJJJJJJJJJJJ",
"JJJKLIIPKKLUPLJJHHJHmJJJJJJJJJJJ",
"JJJKIYYILjgiiy0000000emJKJJJJJKJ",
"JJJKIYYIJu<===@@*=@*=>0JJJJJJKKK",
"JJJKJLjjy1+..XX  X  X+6eHJJJJJJJ",
"JJKjapp9;+X .       XX+>mmJJJJJJ",
"JJjjpw6:+. o$&&&%%%#o Xo,0HJJKJJ",
"JJJJf0;+O  #5MMMMMM4#  Oo,eJJJJJ",
"JJJJJ0@X o#2NZZAGGAN2#o o@0HJKJJ",
"JJJJH0@  #5NcxxnSSncN4$ X@0HJJJJ",
"JJJJJe@X &MCxkzbCnlxCM% X@0JJJJK",
"JJJJJ0@X &MZxznnvkkxZN& X@0JJJJJ",
"JJKJJ0@  %MAnvnnkkznAM&..$0JJJJK",
"JJJJH0@. %MDSCvzklnSDM% .@0JJJJJ",
"JJJKH0@X %MDSnzklbSTDM%XX@0JJJJJ",
"JJJJH0=  %MAnkkxnSGTGM%X *0JJJJJ",
"JJJJH0=  %MZxkkvADSSDM%  *0HJJJJ",
"JJJJJ0=  %MZxlnSGAbnZM%X *0JJJJJ",
"KJJJJ0=  %MSnbAGAnzxZM%  *0HJJJJ",
"JJJJH0=  %MSSSGSbkkxCM%  =0HJJJJ",
"JJJJJ0=  #4BFTTSnvxcN4#  =0JKKJJ",
"JJJJH0=X o#3BGGSAZZN2#o X=yIIPKJ",
"JHfHHe;+X  #4MMNMMM4#  X+<gUYIKJ",
"Jfttjf9:+XXo#%%%%&&#o .@1uLYYYUj",
"Jfttttt8;+X         .O+:yJLjjjKL",
"JJfdtttte,@X XXX  . .+:9sjappajJ",
"JJJfttHJme>@@@@@=@@@@-6rddaqwafJ",
"HJJHfjJJJme0000000098qrttttfajJJ",
"JJJJJJJJJJHHHHHJJJHHHJJHttjKJJJJ",
"JJJJJJJJJJJKJJJJJJJJJJJHjjjJJJJJ",
"JJJJJJJJJJJJJJJJJJJJJJJJJJJJJJJJ"
};
