/* XPM */
static char *result[] = {
/* columns rows colors chars-per-pixel */
"32 32 125 2 ",
"   c #051309",
".  c #0D130A",
"X  c #051B0B",
"o  c #0F1E0F",
"O  c #101E0F",
"+  c #0B1E1A",
"@  c #09240F",
"#  c #10200F",
"$  c #092410",
"%  c #0C2913",
"&  c #0D231E",
"*  c #122512",
"=  c #142B15",
"-  c #1E2B17",
";  c #142E19",
":  c #1C2E19",
">  c #1B331A",
",  c #17381A",
"<  c #21321A",
"1  c #213B1E",
"2  c #0E2620",
"3  c #102721",
"4  c #132C26",
"5  c #142F28",
"6  c #1A3B21",
"7  c #16322B",
"8  c #19322B",
"9  c #223D21",
"0  c #263529",
"q  c #28372B",
"w  c #27392D",
"e  c #2A3A2D",
"r  c #1F4424",
"t  c #125D27",
"y  c #244425",
"u  c #294E2A",
"i  c #15622A",
"p  c #166C2D",
"a  c #186B2E",
"s  c #1A7532",
"d  c #1D7B35",
"f  c #227433",
"g  c #29507D",
"h  c #557941",
"j  c #1F8539",
"k  c #21853A",
"l  c #228B3B",
"z  c #25913E",
"x  c #388F4C",
"c  c #269440",
"v  c #289742",
"b  c #269842",
"n  c #299A43",
"m  c #2D9D48",
"M  c #2BA347",
"N  c #2CA649",
"B  c #2EAB4B",
"V  c #2FB04D",
"C  c #31B34E",
"Z  c #3EA354",
"A  c #548546",
"S  c #628F4D",
"D  c #65954F",
"F  c #679751",
"G  c #649C53",
"H  c #689C53",
"J  c #48B15F",
"K  c #48BC5F",
"L  c #6DA457",
"P  c #6AA857",
"I  c #6AA35A",
"U  c #6DAC5A",
"Y  c #73AC5B",
"T  c #6EB15E",
"R  c #74B25E",
"E  c #49B260",
"W  c #47BC60",
"Q  c #4ABE64",
"!  c #71AD61",
"~  c #6EB260",
"^  c #74B562",
"/  c #78B562",
"(  c #76B861",
")  c #7DBE64",
"_  c #77B668",
"`  c #78B768",
"'  c #79B969",
"]  c #4CC063",
"[  c #4EC368",
"{  c #7EC066",
"}  c #7FC871",
"|  c #81C367",
" . c #84C669",
".. c #86CA6C",
"X. c #88CD6D",
"o. c #8AD06E",
"O. c #84CD73",
"+. c #89CF70",
"@. c #89D376",
"#. c #8AD57A",
"$. c #8CD87D",
"%. c #316394",
"&. c #376E9D",
"*. c #3C74A1",
"=. c #569BBD",
"-. c #488FC2",
";. c #5BAACE",
":. c #5DACD1",
">. c #6FB7D7",
",. c #62BADF",
"<. c #6DB8D8",
"1. c #67BDE1",
"2. c #68C4EC",
"3. c #6ECEF5",
"4. c #6ED0F5",
"5. c #73DAFE",
"6. c #78E1FF",
"7. c #C3BABF",
"8. c #8FDE81",
"9. c #80DBFD",
"0. c #91E1FF",
"q. c #C2D2DB",
"w. c #D8DEE3",
"e. c #E7E3E4",
"r. c #EEFFFF",
/* pixels */
" . . . . . .|  .| |  .| | | |  .|  . . . . . . . . . . . ... . .",
" . . . ...........| ..+.+.+......... . . . . . . . . . . . . . .",
" . . ...O.@.@.O...+.@.` _ _ Y Y Y Y .... . . . . . . . . . . . .",
" . .| ..#.$.$.#.../ I y : > : ; * < H / |  . . . . . . .X. . . .",
" . .{ ..@.8.8.@.I y y J [ Q Q Q m a % - / ..|  . . . . ... . . .",
" . . ... .} } H u x Z K ] Q [ Q Q B i * H X.......X. . ... . . .",
" . . .{ ^ ~ G 6 x 6 0 e e 0 8 4 ; z l i > H Y Y Y Y  . . ... . .",
" . . .{ ^ ~ A y Z 0 7.e.q.>.,.=.3 l l s   # : = . - Y .. . . . .",
" . . .| | L 1 E Q w w.r.9.5.6.1.8 l l a % f z k X . R X.|  . . .",
".. . .| ..Y = ] K 8 >.5.3.3.3.:.4 l l a @ z C V k - Y X. . . . .",
" . . . ...Y = m z 5 ,.5.5.2.=.&.& z l a @ z B V z = Y  . . . . .",
" . . .| ..Y = c z 4 =.1.:.&.%.g $ l l a @ v B V z = Y X. . . . .",
" . . . .X.Y = v M = = 4 4 & & & % c l p @ z C V z = Y X. . . . .",
" . . . ...Y = z C z z z z z z z n M k p * z V V z * Y X. . . . .",
" . . . ...Y = z C V V V V C B V V M j a @ z V V z = Y X.|  . . .",
" . . . .X.Y = z V N N N N N N B N M k a @ z N V z = Y X. .X. . .",
" . . . ...Y = z B B B B B B B N B M j a X i s a i @ Y X. . . . .",
" . . .| ..Y = z B N B B B N B B B M j s   O * - # - R  . . . . .",
" . . . .X.Y : z V B B B N B B B N M l p * F Y Y Y R  . . . . . .",
" . . . ...Y = z B B B B N B N B B M l p * Y @. .X. . . . . . . .",
" . . . .X.Y 1 k B B B B N N B B B M j i , R .. .| |  .|  . . . .",
" . . . . . .H , z C B B V V N B M l p ; H X....... ..... . . . .",
" . . . . .X.Y = z C N z z v N B M l p * ' $.@.+.....+.#.@.+.X. .",
" .| { | | ..L = z C z % @ % b B M j p * ` 8.$.@.O. .#.$.$.#... .",
" .{ R R { { G = z C z = h = z V M j p * ' 8.$.#.O...@.$.$.@...{ ",
" .) R R R { G = z C z > D > z V M l p = ~ } } .. . .} } } O... .",
" .| { R R R G = z C z : S : z V M l a * I ~ T R ) ) ` ~ T ^ {  .",
" . . .) R R P = z C l > D ; z V N M p @ G T T R ( ( R U U ^ )  .",
" . . .| { { U * s f i * D = s d p d f 1 Y { R R T R ( ) ) ) {  .",
" . . .|  .X.R < # = @ < F < # - * , P / |  . .| R R )  . . . . .",
" . .| X.| | | R Y Y Y R | R Y Y Y R  . . . . .| { { |  . . . . .",
" . . .| X.X.| X.X.X.X.X. . .X.X. .X. . . . . . . .|  .|  ... . ."
};
