/* XPM */
static const char *among_us_green_modified_xpm[] = {
/* columns rows colors chars-per-pixel */
"32 32 8 1 ",
"  c None",
". c #000000",
"g c #2DAA4A",
"G c #1D7F36",
"l c #57D973",
"b c #71D3F9",
"B c #3974A8",
"w c #FFFFFF",
/* pixels */
"                                ",
"                                ",
"                                ",
"           .......              ",
"         ..lllllgG..            ",
"        .llllllllgG.            ",
"       .l........gGG.           ",
"       .l.wwwbbb.gGG......      ",
"      .ll.wwbbbb.gGG.ggg..      ",
"      .ll.bbbbbb.gGG.gggg.      ",
"      .gg.bbbbBB.gGG.gggg.      ",
"      .gg.bbbBBB.gGG.gggg.      ",
"      .gg........gGG.gggg.      ",
"      .gggggggggggGG.gggg.      ",
"      .gggggggggggGG.gggg.      ",
"      .gggggggggggGG.gggg.      ",
"      .gggggggggggGG.GGGG.      ",
"      .gggggggggggGG......      ",
"      .gggggggggggGG.           ",
"      .gggggggggggGG.           ",
"      .gggggggggggGG.           ",
"       .gggggggggGG.            ",
"       .gggggggggGG.            ",
"       .ggg...gggGG.            ",
"       .ggg. .gggGG.            ",
"       .ggg. .gggGG.            ",
"       .ggg. .gggGG.            ",
"       .ggg. .ggggG.            ",
"       .gGG. .gGGGG.            ",
"       ..... .....              ",
"                                ",
"                                ",
};
