/* XPM */
static char *result[] = {
/* columns rows colors chars-per-pixel */
"32 32 42 1 ",
"  c #84C669",
". c #83C568",
"X c #84C76A",
"o c #85C96C",
"O c #85CA6D",
"+ c #84C66A",
"@ c #87D074",
"# c #89D378",
"$ c #85C86C",
"% c #85CA6E",
"& c #89D478",
"* c #8CD97E",
"= c #8AD479",
"- c #8CDA7F",
"; c #84C568",
": c #83C76B",
"> c #82C970",
", c #81CB73",
"< c #7EC066",
"1 c #72B561",
"2 c #6CAF5E",
"3 c #73B661",
"4 c #7FC167",
"5 c #7EBF65",
"6 c #71B25D",
"7 c #6AAA59",
"8 c #6FB05C",
"9 c #78B961",
"0 c #82C367",
"q c #7DBF65",
"w c #7CBD63",
"e c #77B861",
"r c #6FAF5C",
"t c #85C769",
"y c #71B15D",
"u c #82C467",
"i c #81C367",
"p c #82C468",
"a c #7EC065",
"s c #88D074",
"d c #73B561",
"f c white",
/* pixels */
"   ............                 ",
" ..XoOOo++oOOoX..               ",
" ..o@##@$$@##@o..               ",
" ..%&**&OO&**&%..               ",
" ..%=--&OO&--=%..               ",
" ;;:>,,>::>,,>:;;               ",
"   <1223443221<                 ",
"   567789987765                 ",
"   0qwwerrewwq0                 ",
" ..  tt5yy5tt      ..           ",
" ..    uqqu t      ..           ",
"     ..    iq5pp5qi             ",
"     ..    qy6aa6yq             ",
"           q689986q             ",
"           u5erre5u             ",
"         .. t5yy5t ..           ",
"         ..  uqqu  ..           ",
"           ..    ..             ",
"           ..    ..             ",
"                   ............ ",
"                   ............ ",
".        ..      ..Xo%%o++o%%oX.",
".        ..      ..os&&@$$@&&@o.",
" 0q5pp5qi        ..%&**&OO&**&O.",
" q66aa6yq        ..%=--&OO&--&%.",
" 5689986q        ;;:>,,>::>,,>:;",
" uaerre5u          <122344322d< ",
". t5yy5t ..        567789987765 ",
".  uqqu  ..        0qwwerrewwq0 ",
" ..    ..        ..  tta66att  .",
" ..    ..        ..    u55u    .",
"                     ..    ..   "
};
