/* XPM */
static char *result[] = {
/* columns rows colors chars-per-pixel */
"32 32 53 1 ",
"  c #84C669",
". c #83C568",
"X c #84C76A",
"o c #85C96C",
"O c #85CA6D",
"+ c #84C66A",
"@ c #87CF73",
"# c #89D377",
"$ c #85C96D",
"% c #85CA6E",
"& c #8CD87D",
"* c #85CB6E",
"= c #89D378",
"- c #8BD87E",
"; c #88D377",
": c #84C568",
"> c #83C76B",
", c #81C86F",
"< c #80CA72",
"1 c #84C569",
"2 c #7EC066",
"3 c #74B762",
"4 c #6EB160",
"5 c #6EB260",
"6 c #75B862",
"7 c #7EBF65",
"8 c #73B45E",
"9 c #6CAD5B",
"0 c #6CAC5A",
"q c #70B15D",
"w c #77B861",
"e c #81C367",
"r c #7DBF65",
"t c #7BBC63",
"y c #7BBC62",
"u c #77B761",
"i c #71B15D",
"p c #7DBE65",
"a c #84C668",
"s c #7DBE64",
"d c #73B35E",
"f c #82C367",
"g c #83C669",
"h c #81C368",
"j c #7DBF64",
"k c #71B25D",
"l c #77B860",
"z c #88CF73",
"x c #8CD97D",
"c c #83C569",
"v c #8BD87D",
"b c #82C467",
"n c white",
/* pixels */
"   ............                 ",
" ..XoOOo++oOOoX..               ",
" ..o@##@$$@##@o..               ",
" ..%#&&#**#&&=%..               ",
" ..%=--;**;--=%..               ",
" ::>,<<,>>,<<,>::               ",
"  12345622654321                ",
"  17890qwwq09871                ",
"   ertyuiiuytpe                 ",
" ..   asddsa       ..           ",
" ..    frrf     1  ..           ",
"     .. gg er7eh7re             ",
"     ..   grd8jj8drg            ",
"          gr8kllk8rg            ",
"           fswiiwsf             ",
"         .. asddsa ..           ",
"         ..  frrf  ..           ",
"           .. gg ..             ",
"           ..    ..             ",
"                   ............ ",
"                   ............ ",
".        ..      ..Xo%%o++o%%oX.",
".  1  1  ..      ..oz##@$$@##@o.",
" er7hh7re        ..%#&x#**#x&#%.",
"cr88jj8drg       ..%=--;**;-v;%.",
"178kllk8rg       ::>,<<,>>,<<,>:",
" bjwiiwsf         12345622654321",
". asddsa ..       17890qwwq09871",
".  frrf  ..        ertywiiwytpe ",
" .. gg ..        ..   aj88ja   .",
" ..    ..        ..    b77b    .",
"                     .. 11 ..   "
};
