/* XPM */
static char *result[] = {
/* columns rows colors chars-per-pixel */
"32 32 101 2 ",
"   c #37202E",
".  c #38212E",
"X  c #38212F",
"o  c #3A222F",
"O  c #3A232F",
"+  c #3B232F",
"@  c #3C232F",
"#  c #3A2330",
"$  c #3B2430",
"%  c #3C2430",
"&  c #3D2430",
"*  c #3E2530",
"=  c #3F2631",
"-  c #4D2C32",
";  c #482D34",
":  c #573335",
">  c #5C3636",
",  c #5D3637",
"<  c #5C3737",
"1  c #5D3737",
"2  c #5E3D3B",
"3  c #673A37",
"4  c #633F3C",
"5  c #733D37",
"6  c #66433F",
"7  c #67443F",
"8  c #68443F",
"9  c #68453F",
"0  c #69453F",
"q  c #7B4239",
"w  c #7C4D41",
"e  c #844439",
"r  c #84453A",
"t  c #85453A",
"y  c #86453A",
"u  c #924E3D",
"i  c #90513F",
"p  c #955240",
"a  c #9E5B43",
"s  c #9F5B44",
"d  c #A15C44",
"f  c #A75E44",
"g  c #AA5F44",
"h  c #AB5F44",
"j  c #A76146",
"k  c #AC6044",
"l  c #AE6145",
"z  c #AF6245",
"x  c #A56449",
"c  c #B76C4C",
"v  c #B76D4C",
"b  c #B86848",
"n  c #BB6A49",
"m  c #BC6A49",
"M  c #BC6B49",
"N  c #BD6B49",
"B  c #BE6C49",
"V  c #BD6C4A",
"C  c #BE6C4A",
"Z  c #BF6C4A",
"A  c #BE6D4A",
"S  c #BF6D4A",
"D  c #BD714E",
"F  c #A16F52",
"G  c #B77B57",
"H  c #BF7F58",
"J  c #C06D4A",
"K  c #C16D4A",
"L  c #C77952",
"P  c #C87A52",
"I  c #C97A52",
"U  c #CB7C53",
"Y  c #CC7C53",
"T  c #C0865D",
"R  c #C0865E",
"E  c #C1865E",
"W  c #C1875E",
"Q  c #C2875E",
"!  c #C3885E",
"~  c #D2895C",
"^  c #DF9763",
"/  c #DF9864",
"(  c #E09864",
")  c #E19864",
"_  c #E29964",
"`  c #E29A65",
"'  c #E39A65",
"]  c #EAA56C",
"[  c #EBA66C",
"{  c #ECA66C",
"}  c #EDA76D",
"|  c #EEA76D",
" . c #EDA86D",
".. c #EEA86D",
"X. c #EFA86D",
"o. c #EEA96E",
"O. c #EFA96E",
"+. c #EFAA6E",
"@. c #F0A96E",
"#. c #F2AB6E",
"$. c None",
/* pixels */
"$.$.$.$.$.$.$.$.$.$.$.$.$.$.$.$.$.$.$.$.$.$.$.$.$.$.$.$.$.$.$.$.",
"$.$.$.$.$.$.$.$.$.$.$.$.$.$.$.$.$.$.$.$.$.$.$.$.$.$.$.$.$.$.$.$.",
"$.$.$.$.$.$.$.$.$.$.$.$.$.$.$.$.$.$.$.$.$.$.$.$.$.$.$.$.$.$.$.$.",
"$.$.$.$.$.$.$.$.$.$.$.$.$.$.$.$.$.$.$.$.$.$.$.$.$.$.$.$.$.$.$.$.",
"$.$.$.$.$.$.$.$.$.$.= = = = = = = = = = = = $.$.$.$.$.$.$.$.$.$.",
"$.$.$.$.$.$.$.$.$.$.= * & % % % % % % & * = $.$.$.$.$.$.$.$.$.$.",
"$.$.$.$.$.$.$.$.= = = * @ o O + + O o @ * = = = $.$.$.$.$.$.$.$.",
"$.$.$.$.$.$.$.$.= * * ; 2 0 9 8 8 9 0 2 ; * * = $.$.$.$.$.$.$.$.",
"$.$.$.$.$.$.$.$.= & @ 2 F ! Q T T Q ! F 2 @ & = $.$.$.$.$.$.$.$.",
"$.$.$.$.$.$.$.$.= % o 0 ! #.@.| | @.#.! 0 o % = $.$.$.$.$.$.$.$.",
"= = = = = = = = = % o 9 Q @.X.{ { X.@.Q 9 o % = = = = = = = = = ",
"% % % % % % % % % o X 7 R ..} ] ] } ..R 7 X o % % % % % % % % % ",
"+ + + + + + + + O .   6 R O. .[ [  .O.R 6   . O + + + + + + + + ",
"8 8 8 8 8 8 8 8 8 4 < w H _ ) ^ ^ ) _ H w < 4 8 8 8 8 8 8 8 8 8 ",
"T T T T T T T E W G x j D P P L L P P D j x G W E T T T T T T T ",
"..............O.+.' Y B m n n n n n n m B Y ' +.O...............",
" . . . . . . .o.o.` U B M M M M M M M M B U ` o.o. . . . . . . .",
"^ ^ ^ ^ ^ ^ ^ / ( ~ v l b V V V V V V b l v ~ ( / ^ ^ ^ ^ ^ ^ ^ ",
"L L L L L L L P I c p u z C V V V V C z u p c I P L L L L L L L ",
"N N N N N N N B Z h e r g A C V V C A g r e h Z B N N N N N N N ",
"Z Z Z Z Z Z Z J K k y t g A C V V C A g t y k K J Z Z Z Z Z Z Z ",
"a a a a a a a s s i 5 q f A C V V C A f q 5 i s s a a a a a a a ",
", , , , , , , 1 1 : - 3 d S C V V C S d 3 - : 1 1 , , , , , , , ",
"% % % % % % % % % # # > a S A V V A S a > # # % % % % % % % % % ",
"& & & & & & & & & $ # > a S A V V A S a > # $ & & & & & & & & & ",
"= = = = = = = = = & % , a S A V V A S a , % & = = = = = = = = = ",
"$.$.$.$.$.$.$.$.= & % , a S A V V A S a , % & = $.$.$.$.$.$.$.$.",
"$.$.$.$.$.$.$.$.= & % , a S A V V A S a , % & = $.$.$.$.$.$.$.$.",
"$.$.$.$.$.$.$.$.$.$.$.$.$.$.$.$.$.$.$.$.$.$.$.$.$.$.$.$.$.$.$.$.",
"$.$.$.$.$.$.$.$.$.$.$.$.$.$.$.$.$.$.$.$.$.$.$.$.$.$.$.$.$.$.$.$.",
"$.$.$.$.$.$.$.$.$.$.$.$.$.$.$.$.$.$.$.$.$.$.$.$.$.$.$.$.$.$.$.$.",
"$.$.$.$.$.$.$.$.$.$.$.$.$.$.$.$.$.$.$.$.$.$.$.$.$.$.$.$.$.$.$.$."
};
