/* XPM */
static char *result[] = {
/* columns rows colors chars-per-pixel */
"32 32 98 2 ",
"   c #3A232F",
".  c #3E2630",
"X  c #3F2831",
"o  c #412B32",
"O  c #4B2F35",
"+  c #522F33",
"@  c #433135",
"#  c #593435",
"$  c #5F3837",
"%  c #603837",
"&  c #603A39",
"*  c #6B3C38",
"=  c #753E38",
"-  c #4C453C",
";  c #4C4C3D",
":  c #504F3F",
">  c #4F503E",
",  c #50503F",
"<  c #66413D",
"1  c #7D443A",
"2  c #514F40",
"3  c #525241",
"4  c #6C4740",
"5  c #6C4840",
"6  c #655A42",
"7  c #6A5E45",
"8  c #566645",
"9  c #5C6E4A",
"0  c #5F704B",
"q  c #627A4E",
"w  c #617651",
"e  c #647D51",
"r  c #87473B",
"t  c #8A4A3C",
"y  c #96513E",
"u  c #815042",
"i  c #995541",
"p  c #9B5943",
"a  c #A55D44",
"s  c #A95E44",
"d  c #94764D",
"f  c #9B6A50",
"g  c #A76247",
"h  c #AE6245",
"j  c #A36449",
"k  c #B76748",
"l  c #B76D4C",
"z  c #BD6C4A",
"x  c #BC714E",
"c  c #B27755",
"v  c #BC7C57",
"b  c #C06D4A",
"n  c #C97B53",
"m  c #648D52",
"M  c #679256",
"N  c #6A9355",
"B  c #6B9B57",
"V  c #6D9758",
"C  c #6A9C59",
"Z  c #729B5A",
"A  c #6DA75A",
"S  c #6CAB5A",
"D  c #76A65E",
"F  c #7AA05C",
"G  c #74AC5E",
"H  c #6DB05F",
"J  c #73B25E",
"K  c #75A663",
"L  c #76A961",
"P  c #77A969",
"I  c #6EB160",
"U  c #74B762",
"Y  c #79B661",
"T  c #77B861",
"R  c #7DBD64",
"E  c #7AB26A",
"W  c #7DBF6B",
"Q  c #7EC066",
"!  c #AE8552",
"~  c #BC835C",
"^  c #88A75D",
"/  c #8AA95F",
"(  c #93AE61",
")  c #80BD66",
"_  c #CF865A",
"`  c #DE9662",
"'  c #E09764",
"]  c #EBA66C",
"[  c #EDA86D",
"{  c #F0A86D",
"}  c #82C367",
"|  c #84C569",
" . c #85C96D",
".. c #85CD73",
"X. c #87D076",
"o. c #89D377",
"O. c #89D378",
"+. c #8CD87D",
/* pixels */
"| | | | | | | | } } | | } | | | | | | | | | | | |  .| | | | | | ",
"| | | |  . . .| | |  ... . . .| | | | | | | | | | | | | | | | | ",
"| | |  ...o.o.X. . ...O.X...| | ) | | | } | | | | |  .| | | | | ",
"| | |  .o.+.+.o...} E P P K Z Z Z Z Z Z Z D ) | | | | | |  .| | ",
"| | Q  .o.+.+.+. .K w 3 3 3 2 : 2 3 3 2 3 0 D } | | | | | | | | ",
"| | |  . .Q Q Q K w - o . . o o . . . . o - q F } | | | |  .| | ",
"| |  .Q U I U C 9 - o o o . o   . o   o o o - w D | | | | | |  .",
"|  .Q Q I S H M 2 o o O & 4 4 4 5 5 4 & O . o 3 F } |  .| | | | ",
"| | | Q R R Y M ; o o & f ~ ~ ~ ~ ~ ~ f $ . X 2 Z } | } } | | } ",
"Z Z B Z V A B w @ o . 4 ~ ] ] ] ] ] ] ~ 5 . . 2 q Z Z Z Z Z Z Z ",
"3 3 3 3 2 3 2 - o . . 4 ~ ] [ ] ] [ ] ~ 5 X . X - : : , : : : , ",
". X . . . X .   .   . 4 ~ ] [ ] ] ] ] ~ 4 .   . o o o   o o o o ",
"  o     . . . . . . . 5 ~ ] ] ] ] ] ] ~ 4 .   . . . . .   . . . ",
"5 < 4 4 4 4 4 4 4 < & u v ` ` ` ` ` ` v u & * 4 4 4 4 4 < 1 4 4 ",
"_ ~ ~ ~ ~ ~ ~ ~ ~ c j g x n n n n n n x j j c ~ ~ ~ v ~ ~ ~ ~ ~ ",
"] ] ] ] ] ] ] ] ] ` n l z z z z z z z l z n ` ] ] ] ] ] ] ] ] ] ",
"[ [ ] ] ] [ [ [ [ ` _ z z z z z z l z z b n ' [ [ ] ] [ ] [ [ ] ",
"` ` ` ` ` ` ` ` ` _ k h k z z z z z z k h k _ ' ` ' ` ` ` ` ` ` ",
"n n n n n n n n n l y y h z z z z z z s y i k n n n n n n n n n ",
"z z b z z z b b z s t r s z z z z b b s t t s b b z z b z z z z ",
"z z z z z z z z z s r r s z z z z b z s r r s b b z z b z z z z ",
"y p p p a y y p y y 1 1 s x z z z z l a 1 = u i i i i i i i i p ",
"% % % % % % % % % # O * a z z z z b z a * + # % & & % % % % & & ",
"o o   o   o o   o     $ y z x z z z z i % . . . . o . . .   o o ",
"  o   o o   o   X     % y b z z z x b y %       . o X X X X X X ",
": : ; ; ; : ; - @   o % y z z z z b b y % o o @ O 2 3 3 3 3 3 2 ",
"Z Z V N m m N q ; X X < a x z x x z b g % o   - e V M m m m V C ",
") } ) ) J J J F q > > < d ! ! ! ! ! ! d , - ; 8 C Y H S A U R } ",
"| | | | R R | R G Z Z ^ ( ( ( ( ( ( ( ^ Z N N B S J U R R R }  .",
"| | | | | | | } } | } } } | | | | | } | } } | R J J R |  .} | } ",
"| | | | | | | | | | | | } | | | | | | | | | | | R Q | | | | | | ",
"| |  .| | | | | | | | | | |  .| | | | | | | | | | | | | | | | | "
};
