/* XPM */
static char *result[] = {
/* columns rows colors chars-per-pixel */
"32 32 87 1 ",
"  c #3A232F",
". c #3E2630",
"X c #3E2831",
"o c #422931",
"O c #522F33",
"+ c #433135",
"@ c #573335",
"# c #593435",
"$ c #5F3837",
"% c #603837",
"& c #613938",
"* c #6B3C38",
"= c #753E38",
"- c #4C463C",
"; c #4C4B3D",
": c #504F3F",
"> c #50503F",
", c #66413D",
"< c #69443E",
"1 c #7D443A",
"2 c #525240",
"3 c #6C4740",
"4 c #6C4840",
"5 c #655A42",
"6 c #6A5E45",
"7 c #566645",
"8 c #5F714B",
"9 c #637B4F",
"0 c #87473B",
"q c #824B3E",
"w c #8A4A3C",
"e c #96513E",
"r c #815042",
"t c #995541",
"y c #9B5943",
"u c #A55D44",
"i c #A95E44",
"p c #94764D",
"a c #A76247",
"s c #AE6245",
"d c #A46449",
"f c #B76748",
"g c #B76D4C",
"h c #BD6C4A",
"j c #BD724F",
"k c #B37755",
"l c #B57855",
"z c #BC7C57",
"x c #C06D4A",
"c c #C97B53",
"v c #638D52",
"b c #669155",
"n c #6B9556",
"m c #6B9B57",
"M c #6D9758",
"N c #729B5A",
"B c #6DA75A",
"V c #6CAC5B",
"C c #76A75E",
"Z c #7AA05C",
"A c #72AD5D",
"S c #72B35E",
"D c #75A464",
"F c #6EB260",
"G c #75B661",
"H c #77B861",
"J c #7DBE64",
"K c #7EC066",
"L c #7FC771",
"P c #AE8552",
"I c #BC835C",
"U c #88A75D",
"Y c #8AA95F",
"T c #93AE61",
"R c #80BD66",
"E c #CF865A",
"W c #DE9662",
"Q c #E09763",
"! c #EBA66C",
"~ c #EDA86D",
"^ c #82C367",
"/ c #84C669",
"( c #84CA6E",
") c #85CD74",
"_ c #89D377",
"` c #89D47B",
"' c #8CD97E",
/* pixels */
"///////N2..4I!!!!I<o.2N^///(////",
"/////((N2X.4I!!!!I<o.2N^//////(/",
"///()_)D2X.4I!!!!I3o.2NR////////",
"///(_'`D2X.4I!!!!z3 .-9CR///(///",
"///(_'_D2X.<I!!!!I3o.o-9C//(////",
"////)LLD2X.<kWQQWzrOooo2N///////",
"///KGFVb>Xo&dccccjdq@..2N///////",
"///KFVVv;o &dccccccd&o.2N///////",
"////^JSn:o <kWQWWWWk3. 2N^/^^^/^",
"//////^m; o<I!!!!!!I3..29NNNNNNN",
"//////^m>.o<I!!!!!!I3..X-:>22222",
"/////^^N>.o<I!!!!!!I3  .o.o....o",
"//////^N2X.3I!!!!!!I3...........",
"//////^N2..<kWQWWWWzr&*333333333",
"///(/(/N2..&dccccccjddkIIIzIIIII",
"///////N>oo$yhhhhghghcW!!!!!!!!!",
"//////^N>..%ehhhhhhhxcQ!~!!!!!!!",
"//////^N> o$yhhjhhhfsfEQWQWQQWQQ",
"////(/^N>o.&yhhhhhhittfccccccccc",
"//////^N>oo&yhhhhhxiwwixxhhhhhhh",
"(//////N>Xo$yhhhhxhi00ixhhhhhhhh",
"//////^N>o %yhhhhhfu1=rttyytyyyt",
"^//////N>oo%uhhhhhhu*O#%&&%%%%%%",
"(^^^^^Jn> o%ehhjhxht%... o.... o",
"^^SS^/Sb>XX%yhhhhhhy$o  o..o.XXX",
"^JSSSSSb>X %yhhhjhhy% X+22222222",
"/^^SSSSn>oX*yjhhhhhy%XX-8MbvvbMN",
"^(^JSSRC8>>6pPPPPPPp5--7nFFBBFJ^",
"////S^/RCNNZYTTTTTTUNnnmBVGJJJR/",
"///////^^/^^/^/^//^/^/^JGGJ/^(//",
"///////////////////////^JK//////",
"////////////////////////////////"
};
