/* XPM */
static char *result[] = {
/* columns rows colors chars-per-pixel */
"32 32 89 1 ",
"  c #3A232F",
". c #3E2630",
"X c #3E2831",
"o c #412C33",
"O c #4B2F35",
"+ c #522F34",
"@ c #443236",
"# c #583335",
"$ c #603837",
"% c #613A39",
"& c #743E38",
"* c #4C463C",
"= c #4C4B3D",
"- c #504F3F",
"; c #4F503E",
": c #50503F",
"> c #66413D",
", c #69443E",
"< c #514F40",
"1 c #525241",
"2 c #6C4740",
"3 c #6C4840",
"4 c #764B41",
"5 c #5C6E4A",
"6 c #5D714B",
"7 c #647D4F",
"8 c #617651",
"9 c #647D51",
"0 c #88473A",
"q c #8B4B3D",
"w c #96513F",
"e c #815042",
"r c #895243",
"t c #945744",
"y c #9B5943",
"u c #A95D44",
"i c #9B6A50",
"p c #A76247",
"a c #AE6145",
"s c #A4644A",
"d c #B56748",
"f c #BD6B49",
"g c #BC714E",
"h c #B37755",
"j c #BC7C57",
"k c #C06D4B",
"l c #C0724D",
"z c #C67750",
"x c #C97B53",
"c c #60874F",
"v c #638D52",
"b c #669055",
"n c #6B9556",
"m c #6D9758",
"M c #6C9B59",
"N c #729B5A",
"B c #6CAB5B",
"V c #76A65E",
"C c #72AD5D",
"Z c #6EB05F",
"A c #72B35E",
"S c #75A663",
"D c #76A961",
"F c #77A969",
"G c #6EB260",
"H c #76B660",
"J c #77B861",
"K c #7DBE64",
"L c #7AB26A",
"P c #7DBF6B",
"I c #7EC066",
"U c #BC835C",
"Y c #80BD66",
"T c #C4835B",
"R c #CA885D",
"E c #D58A5C",
"W c #DE9662",
"Q c #E09763",
"! c #EBA56C",
"~ c #EDA86D",
"^ c #F0A86D",
"/ c #82C267",
"( c #84C669",
") c #85C96D",
"_ c #85CD73",
"` c #87D076",
"' c #89D377",
"] c #89D378",
"[ c #8CD87D",
/* pixels */
"((((((((/(/(((/(((((((((((((((()",
"(((()))))/)))))(((((()(((()(((((",
"((()_'`_))_``_)///(///((((((((((",
"((()'[['_PLFFSNNNNNNNVY/)(((((((",
"((()'[[`)S81111<11<<<6S/((((()((",
"((/))_IIS8<.XXXX.o..o*cD((((((((",
"(((IHGGB5<o.X.XX.o.ooo#6YY((((((",
"(((PGBBv<XXO>23322,%OoX1NY)(((((",
"((((KKAb-oo$iUUjUUUi#..1NY(Y((Y(",
"(((((((N= o,U!~!!~!U3..*7NNNNNNN",
"((((((/N-  ,U~^!!~~U3o.o*-------",
"((((((/N:oo,U!~!!~!U2X..ooo oooo",
"((((((/N:o.2j!!!!!!j2....... o. ",
"()((((/N-o.&hWWWWQWje%%22222,,,,",
"(((((((N-o $sxxxxxxgsshUUUUUUxTT",
"((()(((N-oo$yfffffgffxW!!!!!!!!!",
"((((()/N:.o$yfkfffffkxQ!^!~!!!!!",
"(((((((N1..%pxxxxgdudzEQWQWWWWWQ",
")(((((/N1..,hWQQWxytakzzxxxxxxxx",
"(((((((N1..,U!!!!Ry0ukkkfffkfkff",
"(((((((N:. 3U!!!!Rt0ufffffffffff",
"((()((/N1oo2U!!!!Tr&ryyyyyyyyyyy",
"((((((/M1. ,U!!!!U4++$$$#$$$$$#%",
"(//Y//Kn1..4U!!!!U2X..o  o.....o",
"(YAA/(Ab1X.2U!!!!U,X .XXo XXXXXX",
"(/AAAAAb=..2U!!!!U3  @*;<<1<111<",
"(/KAAAAm1..3U!!!!U3.X*5bNmbvvbmN",
"(((KAAAN1..3U!!!!U3  =cCHHCBBDP/",
"(((////N1..3U!!!!U,.X-nAAAKAJJ()",
"((((((/N1..3U!!!!U2.o:NKAAI()(((",
"((((((/N1..2U!!!!U2oX:N/II((((((",
"((((((/N1..2j!!!!T,  :N/(((((((("
};
