/* XPM */
static char *result[] = {
/* columns rows colors chars-per-pixel */
"32 32 115 2 ",
"   c #6AAC57",
".  c #6CAD5B",
"X  c #6DB25A",
"o  c #72B35D",
"O  c #6EB160",
"+  c #75B562",
"@  c #76B861",
"#  c #7DBE64",
"$  c #7CBE6C",
"%  c #75B275",
"&  c #7EC15F",
"*  c #7EC066",
"=  c #7DC06D",
"-  c #7EC96E",
";  c #7FC874",
":  c #82C564",
">  c #84C863",
",  c #8BCC64",
"<  c #84C669",
"1  c #84CA6D",
"2  c #89CC69",
"3  c #86C271",
"4  c #8CC773",
"5  c #84CD72",
"6  c #8AC970",
"7  c #85C07E",
"8  c #8AC778",
"9  c #89CA7E",
"0  c #87D372",
"q  c #89D377",
"w  c #8FD873",
"e  c #89D57B",
"r  c #8BD87D",
"t  c #92DB73",
"y  c #124DBE",
"u  c #2D76AA",
"i  c #0044CA",
"p  c #0C6EC8",
"a  c #0D70C7",
"s  c #509992",
"d  c #55A093",
"f  c #5694A3",
"g  c #489BD3",
"h  c #50A3D8",
"j  c #6EA8D1",
"k  c #79B0E2",
"l  c #85B988",
"z  c #8ABD8D",
"x  c #8BB69F",
"c  c #8DBB9B",
"v  c #92BF9B",
"b  c #8BB7A5",
"n  c #89B8A2",
"m  c #90B5AD",
"M  c #92B7B0",
"N  c #93B2BE",
"B  c #8BC383",
"V  c #8CCE86",
"C  c #91CA82",
"Z  c #91C68C",
"A  c #92CD8A",
"S  c #92D28C",
"D  c #92C693",
"F  c #95C399",
"G  c #98C699",
"H  c #93C2A3",
"J  c #9AC5A7",
"K  c #83A4C2",
"L  c #80B0CB",
"P  c #89B6CD",
"I  c #9AB7C3",
"U  c #96B3CD",
"Y  c #99B4CE",
"T  c #9EBECE",
"R  c #96B4D0",
"E  c #9BB6D1",
"W  c #91BCD7",
"Q  c #9CBBD4",
"!  c #A2BFCF",
"~  c #A1BBD2",
"^  c #A9BED5",
"/  c #82B3E0",
"(  c #9EC6C7",
")  c #9AC4C9",
"_  c #91C0DF",
"`  c #98C1DA",
"'  c #B2D1C8",
"]  c #ACC3D7",
"[  c #ADC4DB",
"{  c #BDCCD5",
"}  c #B4C6DB",
"|  c #B5CADC",
" . c #BACDDB",
".. c #B4D2D1",
"X. c #BED1DF",
"o. c #ADC7E2",
"O. c #AEC8E2",
"+. c #A9C7E9",
"@. c #B3CBE2",
"#. c #BACFE5",
"$. c #BED2E3",
"%. c #C1CED9",
"&. c #C5D3DD",
"*. c #C9D4DE",
"=. c #C5D6E2",
"-. c #CAD6E0",
";. c #CCDAE3",
":. c #C3D6EA",
">. c #D2DCE5",
",. c #D8E1E7",
"<. c #D6E1E9",
"1. c #DCE4EB",
"2. c #E6EAEF",
"3. c #EEF1F3",
"4. c #F2F4F7",
/* pixels */
"< < < < < < < < < < < < < : < < < < < < < < < < < < < < < < < < ",
"< < < < 1 1 1 < < < < 1 1 1 < < < < < < < < < < < 2 < < < < < < ",
"< < < < 0 q 0 5 1 1 5 0 q 5 2 < $ < < < < < < < < < < < < < < < ",
"< < < 1 q r r q 1 5 q r r w d a p s 2 < < < < < < < < < < < < < ",
"< < < 5 q r r q 1 1 q r V t u i i u , < < < < < < < < < < < < < ",
"< < < < 3 5 ; ; 1 < 5 ; 5 2 s y y f , < < < < < < < < < < 2 < < ",
"< < < * + O X @ * * + O X % T Q Q ! 7 : < < < < < < < < < < < < ",
"< < < * + . . X + + +   O I :.} ] :.I 4 < < < < < < < < < < < < ",
"< < < * # # # + o o + # m } 3.{  .4.} M 2 < < < < < < < < < < < ",
"< < < < < < < # o o & l U ;.4.>.>.4.>.E z > 1 < < 2 < < < < < < ",
"< < < < < < < < # # > x Y >.2.%.{ 2.>.Y b > < < < < < < < < < < ",
"< < < < < : < < < < : J U %.;.&.%.-.{ K n > < < < < < < < < < < ",
"< < < < < : < < < < : c U { &.%.%.%.{ Y b , < < < < < < < < < < ",
"< < < < < < < < < < : c T %.>.*.*.*.%.^ v > < < < < < < 2 < < < ",
"< < < : < < < < < 3 : v ~ &.-.*.*.>.*.] v > < 2 < < < < < < < < ",
"< < < < < < < < < < : G ^ *.>.>.-.>.*.} F : < < < < < < < < < < ",
"< < < < < < < < < < & G @.*.>.*.*.>.*.} D : : < < < < < < < < < ",
"< < < < < < < < < 1 > G @.-.>.=.-.>.;.#.D : < < < < < < < < < < ",
"< < < < : < < < < < : D #.;.,.>.>.<.;.#.Z < < < < < < < < < < < ",
"< < < < < < < < < < : D O.=.>.=.=.>.X.#.Z : < < < < < : < < < < ",
"< < < < < < < < < < < Z @.;.<.=.-.>.&.$.Z * < < < < < < < : < < ",
"< < < < < < < < < < : Z @.=.;.;.=.>.=.@.A > 1 1 < < 1 2 1 1 < < ",
"< < < < < < < < < < : Z O.=.;.=.*.;.=.@.S 0 q 0 1 1 6 e e 5 1 < ",
"< < # < < * # # < < : Z @.;.=.=.*.;.=.[ S e r q 1 1 q r r q < < ",
"< # o o < : o o # < : B [ ;.;.=.=.;.=.Q V r V 0 1 1 q r r q 1 < ",
"< # o o o @ o o # < < C :. .$. .=.&.X. .9 - ; 5 < 1 - 5 ; 3 < < ",
"< < @ @ o o @ # < < < 1 ' +.W j _ ` +.' o o o + * < + O O + * < ",
"< < : # o o # < < < < : 8 ) / g h k ( 6 X X . o @ @ X . . o # < ",
"< < < < # # < < < : < < < < H P j H : < # # @ + o o o o # # * 1 ",
"< < < < < < : < < < < < : < : 4 2 , < < < < < * o o < < < < < < ",
"< < < < < < < < < < < < < < < < : < < < < < < < : * < < < < < < ",
"< < < < < < < < < < < < < < < < < < < : : < < < < : 1 * < < < < "
};
