/* XPM */
static char *result[] = {
/* columns rows colors chars-per-pixel */
"32 32 117 2 ",
"   c #68AE54",
".  c #6CAD5B",
"X  c #70AB5B",
"o  c #6AB257",
"O  c #6DB25C",
"+  c #72B35D",
"@  c #75BA5B",
"#  c #79BF5E",
"$  c #75AF62",
"%  c #7BAE64",
"&  c #6EB160",
"*  c #75B662",
"=  c #76B861",
"-  c #7DBE64",
";  c #7DC264",
":  c #7DCA6B",
">  c #7FCB71",
",  c #8CB37B",
"<  c #93BD76",
"1  c #94BC7B",
"2  c #82C565",
"3  c #80C865",
"4  c #84C669",
"5  c #89C36A",
"6  c #84CA6D",
"7  c #8EC073",
"8  c #83CC72",
"9  c #8EC578",
"0  c #93C473",
"q  c #93C67F",
"w  c #87D574",
"e  c #89D377",
"r  c #89D378",
"t  c #8BD87D",
"y  c #90D37F",
"u  c #7A7985",
"i  c #7D7D8A",
"p  c #7F8190",
"a  c #868695",
"s  c #8D8E9E",
"d  c #96B584",
"f  c #99B186",
"g  c #9ABA85",
"h  c #9CBB8A",
"j  c #A1B78D",
"k  c #A3B694",
"l  c #A9B497",
"z  c #A4B39D",
"x  c #A8B59C",
"c  c #A4B99A",
"v  c #9293A4",
"b  c #9698A9",
"n  c #999BAC",
"m  c #9B9EB1",
"M  c #A5B2A4",
"N  c #B1B2AB",
"B  c #A1A3B6",
"V  c #A3A6B9",
"C  c #AFB4B8",
"Z  c #B2B4B4",
"A  c #B5B2BC",
"S  c #EB8B86",
"D  c #EB8E8C",
"F  c #EC9692",
"G  c #EC9B9A",
"H  c #F0B7B5",
"J  c #96C485",
"K  c #9EC791",
"L  c #AEC98E",
"P  c #ACC091",
"I  c #BACB9A",
"U  c #BFCFA2",
"Y  c #C6D2AD",
"T  c #CECDBF",
"R  c #CBD6B3",
"E  c #D7D6BC",
"W  c #ABAEC1",
"Q  c #B4B4C6",
"!  c #B8B2C7",
"~  c #B3B6CB",
"^  c #B9B5CD",
"/  c #B4B8CB",
"(  c #B9BCCD",
")  c #B6B7D1",
"_  c #B9B6D1",
"`  c #B5B8D1",
"'  c #B9B8D2",
"]  c #C3BDD2",
"[  c #BDC0D0",
"{  c #DDD5C0",
"}  c #DADAC1",
"|  c #DFD8C8",
" . c #C4C5D3",
".. c #C9C9D6",
"X. c #CDCCD9",
"o. c #D3D2DE",
"O. c #D8D4DE",
"+. c #F3C4C3",
"@. c #E0DBC7",
"#. c #E6D9CC",
"$. c #F6D8D7",
"%. c #F9D9D7",
"&. c #F9DCDA",
"*. c #FAE2DF",
"=. c #D3D4E0",
"-. c #DAD9E2",
";. c #E4DEE4",
":. c #E6E0E5",
">. c #EEE6EC",
",. c #F5E7E3",
"<. c #F5EAEB",
"1. c #FAEFEE",
"2. c #F9F0EF",
"3. c #F7ECF0",
"4. c #FAEFF0",
"5. c #FCF1F2",
"6. c #FFF2F8",
/* pixels */
"4 4 4 4 2 4 4 2 4 2 4 4 2 4 4 4 4 4 4 4 4 4 4 4 4 4 4 4 4 4 6 2 ",
"4 4 4 4 6 6 6 6 4 6 6 6 6 6 4 4 4 4 4 4 2 6 4 4 4 4 4 4 4 4 6 5 ",
"4 2 4 6 8 e e 8 6 6 8 e e e 6 2 4 4 4 4 2 5 4 4 4 5 6 4 4 4 2 4 ",
"4 4 4 6 r t t r 6 6 e t y e 6 2 2 4 4 4 6 4 4 4 6 2 2 4 4 4 4 4 ",
"4 2 4 6 r t t r 6 6 r t t r 6 2 4 4 4 4 4 4 4 4 4 4 2 6 4 4 6 2 ",
"4 5 4 6 6 8 > 6 4 6 8 8 8 6 6 4 4 4 4 4 4 6 4 3 5 4 4 5 4 4 6 5 ",
"4 4 4 - * & O , , # * & & * ; 4 4 4 4 4 4 3 5 l N 5 6 2 4 4 2 4 ",
"4 4 4 - * . . A ! z $   . $ ; 2 4 5 4 4 2 1 Z _ ! 5 3 4 4 4 4 4 ",
"4 4 4 2 - - - C ` / A f < @ # : 2 2 2 5 l ! ` / ! 7 4 4 4 4 4 4 ",
"4 4 4 4 4 2 5 Z ` ~ ` _ N d 1 g g g g Z _ / / / ! 7 2 4 4 4 4 4 ",
"4 4 4 4 4 4 4 Z / / / / ` / ^ ` ' _ / ` / / / / Q 7 4 6 4 6 4 4 ",
"4 4 4 4 4 4 4 Z ` ~ / ~ / ~ ~ / / / / ~ / / / / / 0 3 4 4 4 4 4 ",
"4 4 4 4 4 4 2 Z ` ~ / / / / / ~ / / / / / / / / ^ 0 3 5 4 4 4 4 ",
"4 4 4 4 4 ; 1 ! / / / / ~ W ~ / / Q V ~ / / / / ' l 2 4 4 4 4 4 ",
"4 4 4 4 3 < ! / / ~ ~ ( B i v ~ / b u v / / / / / ^ k 2 4 4 4 4 ",
"4 4 4 4 4 Z ^ / / / ~ / b u a Q ` v u s / / / / / / ^ 1 3 4 4 4 ",
"4 4 4 3 h ^ / ~ / / / / b u a ~ ` v u s / / / / / ~ ` Z 5 2 4 4 ",
"4 4 6 5 A / ~ / / / / / V p v Q ~ B a m / / / / ~ ~ / ^ g 2 4 4 ",
"4 4 3 j _ / / / / / ~ ( X...o.o.o.-.O.o.../ / / / / / ` Z 4 4 4 ",
"4 4 5 Z / / / ~ / ~ X.<.6.5.1.&.&.*.5.5.5.;./ / / / / ~ ^ h 3 4 ",
"4 3 1 ^ / / / / ~ ..1.5.5.5.H S D G ,.5.4.5.-.~ / / / ~ ' M 2 4 ",
"4 2 g ^ / / / / ~ :.5.1.2.5.$.F S +.5.4.5.5.1.[ ~ / / / ' c 3 4 ",
"4 4 7 ! / / / / ( >.5.2.2.2.5.$.+.5.5.5.4.2.1. .~ ~ / / ! q 6 2 ",
"4 ; ; k _ ` / ` ' >.5.2.2.5.5.5.5.2.5.2.5.2.4.' ~ / / Q L e 6 2 ",
"4 ; * + d M M M k T 5.4.1.1.2.5.5.2.2.2.5.6.| J J J J J t w 8 3 ",
"4 - + O @ @ O O @ < { 6.6.5.6.2.,.6.6.6.6.#.9 : : ; : 8 > > 6 3 ",
"4 4 - = O + @ < 4 4 4 I } | E L 0 U R Y P $ O * - 2 * & & * 2 4 ",
"4 4 4 - + + # ; 4 4 2 2 ; 2 ; ; : # ; @ o . . O = = X . . + - 4 ",
"4 4 4 2 - ; 2 4 4 4 4 4 4 4 6 4 2 4 6 4 - - - = + + * = - - 4 4 ",
"4 4 4 4 4 4 4 4 4 4 4 4 4 4 4 4 4 4 4 4 4 4 2 - + + - 4 4 4 4 4 ",
"4 2 4 4 4 4 4 4 4 4 4 4 4 4 4 4 4 4 5 2 4 4 4 2 < # 4 4 4 4 4 4 ",
"4 4 4 4 4 4 4 4 4 4 4 4 4 4 4 4 4 4 4 4 4 4 4 4 3 ; 4 2 4 4 4 4 "
};
