/* XPM */
static char *result[] = {
/* columns rows colors chars-per-pixel */
"32 32 90 1 ",
"  c #3A232F",
". c #3E2630",
"X c #3E2832",
"o c #422931",
"O c #522F33",
"+ c #433135",
"@ c #573335",
"# c #593435",
"$ c #5F3837",
"% c #603837",
"& c #613938",
"* c #6B3C38",
"= c #753E38",
"- c #4C453C",
"; c #4D4C3D",
": c #504F3F",
"> c #50503F",
", c #66413D",
"< c #69443E",
"1 c #7D443A",
"2 c #525241",
"3 c #6C4740",
"4 c #6C4840",
"5 c #655A42",
"6 c #6A5E45",
"7 c #566746",
"8 c #5F704B",
"9 c #60734D",
"0 c #61794D",
"q c #657E52",
"w c #87473B",
"e c #824B3E",
"r c #8A4A3C",
"t c #96513E",
"y c #815042",
"u c #995541",
"i c #9B5943",
"p c #A55D44",
"a c #A95E44",
"s c #94764D",
"d c #A76247",
"f c #AE6245",
"g c #A46449",
"h c #B76748",
"j c #B76D4C",
"k c #BD6C4A",
"l c #BD724F",
"z c #B37755",
"x c #B57855",
"c c #BC7C57",
"v c #C06D4A",
"b c #C97B53",
"n c #648D52",
"m c #669055",
"M c #6A9355",
"N c #6B9B57",
"B c #6D9A59",
"V c #729B5A",
"C c #6DA75A",
"Z c #6CAD5B",
"A c #76A65E",
"S c #7AA05C",
"D c #72B25E",
"F c #77AA62",
"G c #6EB160",
"H c #75B761",
"J c #79B661",
"K c #76B862",
"L c #7DBD64",
"P c #7BB26A",
"I c #7EC066",
"U c #7FC771",
"Y c #AE8552",
"T c #BC835C",
"R c #88A75D",
"E c #8AA95F",
"W c #93AE61",
"Q c #CF865A",
"! c #DE9662",
"~ c #E09763",
"^ c #EBA66C",
"/ c #EDA86D",
"( c #82C367",
") c #84C569",
"_ c #84C96D",
"` c #84CC73",
"' c #87D073",
"] c #89D377",
"[ c #8AD57A",
"{ c #8BD87D",
/* pixels */
"))))))))IV2..3T//^^c3.X2V())))))",
")))_)__)`V2X.3T~//^T3..2V()))_))",
")))_']]'EC2..3T^/^^T3..2V()_)))_",
")))_]{{`Fq2..3T^^/^T3..2V())))))",
")))`]{{P9;+.o4T^//^T3..2V)))))))",
"))))_UUB2X.o#4c!!!!z3..2V))_))))",
")))IHGGm;.o#rdlbbbbg$..2V)))))))",
")))LHZZn2..&gbbbbbbg&XX2V)))))_)",
"((((LLJm;X <z!!!!!!z<.X>VW))))))",
"VVBVBVV8- o<T^/^^^^T<..2C)))))))",
"2222222-+ X<T^^^^/^T4o.2V)))_)_)",
"........X X4T^^^^^/T3.X>V())))))",
".... ...  o4T^^^^^^T< o2V))))))_",
"4<333333<<&yc!!!!!!z*o.2V))_))))",
"TTTTTTTTTzgdlbbbbbbg%oo>V)))))))",
"^^^^^^^^/!bkkkkkkkku%oo:V)))))))",
"^^^^^^///!bvkkkkkvku%..2V))))_))",
"~!!!~!!!!Qlfhkkkkkki%o.2CW))))))",
"bbbbbbbbbjttfkkkkkki%.X2B())))))",
"kkvkkkkvkfwwakkkkkki%.X2VU())))_",
"kkkkkkkkhfwwpkkkkkki$.X2V())))))",
"iiiuiiuiir=1dkkkkvki%.X2V)____))",
"%%%%%%%%%#@*dkkkkvki%o.2V)']]'_)",
".oo o oo   $tkkkkkki%..2S_]{{'_)",
".. ooXX.o  %tkkkklki% o2V`]{{]_)",
"2:;;;;;-+ o%tkkkkkhi%oX>VIUUU_))",
"VCMmnnn0-oo*dkklkkki%oo:BLKGGHI)",
"EU)LZDLA9>:6sYYYYYYs5;;7BKHZZDI)",
"))))LL(EAVVVEWWWWWWRVMMCZDDILII)",
")))))))U()())))))))))))DDDI)))))",
")))))_)))))))))))))))))(III_))))",
")))))))))))))))))))))())))))))))"
};
