/* XPM */
static char *result[] = {
/* columns rows colors chars-per-pixel */
"32 32 114 2 ",
"   c #37202E",
".  c #38212E",
"X  c #38212F",
"o  c #39222F",
"O  c #3A222F",
"+  c #3A232F",
"@  c #3B232F",
"#  c #3C232F",
"$  c #3B2430",
"%  c #3C2430",
"&  c #3D2430",
"*  c #3D2530",
"=  c #3E2530",
"-  c #3F2631",
";  c #4C2B32",
":  c #482D34",
">  c #563235",
",  c #5C3636",
"<  c #5D3637",
"1  c #5C3737",
"2  c #5D3737",
"3  c #5E3D3B",
"4  c #603A39",
"5  c #633F3C",
"6  c #723C37",
"7  c #65413D",
"8  c #66433F",
"9  c #67443F",
"0  c #68443F",
"q  c #68453F",
"w  c #69453F",
"e  c #714840",
"r  c #7C4D41",
"t  c #844339",
"y  c #854439",
"u  c #914D3D",
"i  c #8F503F",
"p  c #864F41",
"a  c #8F5342",
"s  c #905342",
"d  c #9D5942",
"f  c #9E5B43",
"g  c #9B5944",
"h  c #9F5B44",
"j  c #AB5F44",
"k  c #AC5F44",
"l  c #A76146",
"z  c #AE6145",
"x  c #A56449",
"c  c #A6654A",
"v  c #B26648",
"b  c #B76748",
"n  c #BB6948",
"m  c #BB6A48",
"M  c #BB6A49",
"N  c #BC6A49",
"B  c #BD6A49",
"V  c #BD6B49",
"C  c #BE6B49",
"Z  c #BF6C4A",
"A  c #BD714E",
"S  c #A16F52",
"D  c #B77B57",
"F  c #B87B57",
"G  c #BF7F58",
"H  c #C06D4A",
"J  c #C16E4A",
"K  c #C0704C",
"L  c #C0734E",
"P  c #C57650",
"I  c #C67650",
"U  c #C77952",
"Y  c #C87952",
"T  c #C87A52",
"R  c #C97A52",
"E  c #CA7B52",
"W  c #CB7B52",
"Q  c #CB7B53",
"!  c #C0865D",
"~  c #C3875D",
"^  c #C0865E",
"/  c #C1865E",
"(  c #C1875E",
")  c #C2875E",
"_  c #C98359",
"`  c #C3885E",
"'  c #CA895E",
"]  c #CD8B5F",
"[  c #D78C5D",
"{  c #DF9763",
"}  c #DF9764",
"|  c #DF9864",
" . c #E09864",
".. c #E19864",
"X. c #E19964",
"o. c #E29964",
"O. c #E29965",
"+. c #E39A65",
"@. c #EAA56C",
"#. c #EBA66C",
"$. c #ECA66C",
"%. c #ECA76D",
"&. c #EDA76D",
"*. c #EEA76D",
"=. c #EDA86D",
"-. c #EEA86D",
";. c #EFA86D",
":. c #EDA86E",
">. c #EEA96E",
",. c #EFA96E",
"<. c #EFAA6E",
"1. c #F0A96E",
"2. c #F2AB6E",
"3. c None",
/* pixels */
"3.3.3.3.3.3.3.3.3.3.3.3.3.3.3.3.3.3.3.3.3.3.3.3.3.3.3.3.3.3.3.3.",
"3.3.3.3.3.3.3.3.3.3.3.3.3.3.3.3.3.3.3.3.3.3.3.3.3.3.3.3.3.3.3.3.",
"3.3.3.3.3.3.3.3.3.3.3.3.3.3.3.3.3.3.3.3.3.3.3.3.3.3.3.3.3.3.3.3.",
"3.3.3.3.3.3.3.3.3.3.3.3.3.3.3.3.3.3.3.3.3.3.3.3.3.3.3.3.3.3.3.3.",
"3.3.3.3.3.3.3.3.3.3.- - - - - - - - - - - - 3.3.3.3.3.3.3.3.3.3.",
"3.3.3.3.3.3.3.3.3.3.- = & % % % % % % & = - 3.3.3.3.3.3.3.3.3.3.",
"3.3.3.3.3.3.3.3.- - - = # O + @ @ + O # = - - - 3.3.3.3.3.3.3.3.",
"3.3.3.3.3.3.3.3.- = = : 3 w q 0 0 q w 3 : = = - 3.3.3.3.3.3.3.3.",
"3.3.3.3.3.3.3.3.- & # 3 S ` ) ! ! ) ` S 3 # & - 3.3.3.3.3.3.3.3.",
"3.3.3.3.3.3.3.3.- % O w ` 2.1.*.*.1.2.` w O % - 3.3.3.3.3.3.3.3.",
"- - - - - - - - - % O q ) 1.;.$.$.;.1.) q + % - 3.3.3.3.3.3.3.3.",
"% % % % % % % % % O X 9 ^ -.&.@.@.&.-./ 0 @ % - 3.3.3.3.3.3.3.3.",
"@ @ @ @ @ @ @ @ + .   8 ^ ,.=.#.#.=.,.( 0 @ % - 3.3.3.3.3.3.3.3.",
"0 0 0 0 0 0 0 0 0 5 1 r G o...{ { ..o.F 7 @ % - 3.3.3.3.3.3.3.3.",
"! ! ! ! ! ! ! / ( D x l A T T U U R W c 4 $ & - 3.3.3.3.3.3.3.3.",
"-.-.-.-.-.-.-.,.<.+.Q C V N m n n B C d , % * - 3.3.3.3.3.3.3.3.",
"=.=.=.=.=.=.=.>.>.O.E V V V M n n B C d , % * - 3.3.3.3.3.3.3.3.",
"{ { { { { { { } | [ P b z v L T T R W c 4 $ & - 3.3.3.3.3.3.3.3.",
"U U U U U U U Y T I K z u g _ X. ...o.F 7 @ % - 3.3.3.3.3.3.3.3.",
"V V V V V V V V V Z H j t a ] :.%.=.,.( 0 @ % - 3.3.3.3.3.3.3.3.",
"Z Z Z Z Z Z Z Z Z H J k y s ] =.%.&.-./ 0 @ % - 3.3.3.3.3.3.3.3.",
"f f f f f f f f f h h i 6 p ' &.#.$.*.! 0 @ % - 3.3.3.3.3.3.3.3.",
"< < < < < < < < < 2 2 > ; e ~ &.$.$.*.! 0 @ % - 3.3.3.3.3.3.3.3.",
"% % % % % % % % % % % o o 9 ! *.$.$.*.! 0 @ % - 3.3.3.3.3.3.3.3.",
"& & & & & & & & & & & + o 9 ! *.$.$.*.! 0 @ % - 3.3.3.3.3.3.3.3.",
"- - - - - - - - - - - % @ 0 ! *.$.$.*.! 0 @ % - 3.3.3.3.3.3.3.3.",
"3.3.3.3.3.3.3.3.3.3.- % @ 0 ! *.$.$.*.! 0 @ % - 3.3.3.3.3.3.3.3.",
"3.3.3.3.3.3.3.3.3.3.- % @ 0 ! *.$.$.*.! 0 @ % - 3.3.3.3.3.3.3.3.",
"3.3.3.3.3.3.3.3.3.3.- % @ 0 ! *.$.$.*.! 0 @ % - 3.3.3.3.3.3.3.3.",
"3.3.3.3.3.3.3.3.3.3.- % @ 0 ! *.$.$.*.! 0 @ % - 3.3.3.3.3.3.3.3.",
"3.3.3.3.3.3.3.3.3.3.- % @ 0 ! *.$.$.*.! 0 @ % - 3.3.3.3.3.3.3.3.",
"3.3.3.3.3.3.3.3.3.3.- % @ 0 ! *.$.$.*.! 0 @ % - 3.3.3.3.3.3.3.3."
};
