/* XPM */
static char *result[] = {
/* columns rows colors chars-per-pixel */
"32 32 122 2 ",
"   c #37202E",
".  c #38212E",
"X  c #38212F",
"o  c #39222F",
"O  c #3A222F",
"+  c #3A232F",
"@  c #3B232F",
"#  c #3A2330",
"$  c #3C2330",
"%  c #3B2430",
"&  c #3C2430",
"*  c #3D2430",
"=  c #3D2530",
"-  c #3E2530",
";  c #3F2631",
":  c #442831",
">  c #4D2C32",
",  c #522F34",
"<  c #553235",
"1  c #573335",
"2  c #5C3636",
"3  c #5D3636",
"4  c #5D3637",
"5  c #5C3737",
"6  c #5D3737",
"7  c #5F3938",
"8  c #673A37",
"9  c #603A39",
"0  c #633F3C",
"q  c #733D37",
"w  c #65413D",
"e  c #66413D",
"r  c #66433E",
"t  c #66433F",
"y  c #66443F",
"u  c #67443F",
"i  c #68443F",
"p  c #7B4239",
"a  c #7C4D41",
"s  c #844439",
"d  c #84453A",
"f  c #85453A",
"g  c #86453A",
"h  c #854C3E",
"j  c #924E3D",
"k  c #90513F",
"l  c #955240",
"z  c #9D5A43",
"x  c #9E5A43",
"c  c #9E5B43",
"v  c #9F5B44",
"b  c #A15C44",
"n  c #A75E44",
"m  c #AA5F44",
"M  c #AB5F44",
"N  c #A76146",
"B  c #A96247",
"V  c #AC6044",
"C  c #AE6145",
"Z  c #AF6245",
"A  c #A56449",
"S  c #A66449",
"D  c #A6654A",
"F  c #A9664A",
"G  c #B76C4C",
"H  c #B76D4C",
"J  c #B86848",
"K  c #BB6A49",
"L  c #BC6A49",
"P  c #BC6B49",
"I  c #BD6B49",
"U  c #BE6C49",
"Y  c #BD6C4A",
"T  c #BE6C4A",
"R  c #BF6C4A",
"E  c #BE6D4A",
"W  c #BF6D4A",
"Q  c #BD714E",
"!  c #BE714E",
"~  c #B77B57",
"^  c #B87B57",
"/  c #B97C57",
"(  c #BF7F58",
")  c #C06D4A",
"_  c #C16D4A",
"`  c #C67851",
"'  c #C77851",
"]  c #C77951",
"[  c #C77952",
"{  c #C87951",
"}  c #C87A52",
"|  c #C97A52",
" . c #CB7B52",
".. c #CB7C53",
"X. c #CC7C53",
"o. c #CD7C53",
"O. c #C0865D",
"+. c #C0865E",
"@. c #C1865E",
"#. c #C1875E",
"$. c #D2895C",
"%. c #DE9663",
"&. c #DF9763",
"*. c #DF9864",
"=. c #E09763",
"-. c #E09864",
";. c #E19864",
":. c #E29964",
">. c #E29A65",
",. c #E39A65",
"<. c #E49A65",
"1. c #EAA56C",
"2. c #EBA66C",
"3. c #ECA66C",
"4. c #EDA76D",
"5. c #EEA76D",
"6. c #EDA86D",
"7. c #EEA86D",
"8. c #EEA96E",
"9. c #EFA96E",
"0. c #EFAA6E",
"q. c None",
/* pixels */
"q.q.q.q.q.q.q.q.q.q.; & @ i O.5.3.3.5.O.i @ & ; q.q.q.q.q.q.q.q.",
"q.q.q.q.q.q.q.q.q.q.; & @ i O.5.3.3.5.O.i @ & ; q.q.q.q.q.q.q.q.",
"q.q.q.q.q.q.q.q.q.q.; & @ i O.5.3.3.5.O.i @ & ; q.q.q.q.q.q.q.q.",
"q.q.q.q.q.q.q.q.q.q.; $ o y +.7.4.4.7.@.i @ & ; q.q.q.q.q.q.q.q.",
"q.q.q.q.q.q.q.q.; ; ; @ X r +.9.6.6.9.#.i @ & ; q.q.q.q.q.q.q.q.",
"q.q.q.q.q.q.q.q.; - - : , a ( ;.=.-.:.~ w @ & ; q.q.q.q.q.q.q.q.",
"q.q.q.q.q.q.q.q.; = & < h B ! ] ' { | S 7 % * ; q.q.q.q.q.q.q.q.",
"q.q.q.q.q.q.q.q.; & % 9 F o.| ` ` { | S 7 % * ; q.q.q.q.q.q.q.q.",
"q.q.q.q.q.q.q.q.; & @ e / <.;.%.%.-.:.~ w @ & ; q.q.q.q.q.q.q.q.",
"q.q.q.q.q.q.q.q.; & @ i #.9.6.2.2.6.9.#.i @ & ; q.q.q.q.q.q.q.q.",
"; ; ; ; ; ; ; ; ; & + i @.7.4.1.1.4.7.@.i @ & ; q.q.q.q.q.q.q.q.",
"& & & & & & & & & O X u +.7.4.1.1.4.7.@.i @ & ; q.q.q.q.q.q.q.q.",
"@ @ @ @ @ @ @ @ + .   t +.9.6.2.2.6.9.#.i @ & ; q.q.q.q.q.q.q.q.",
"i i i i i i i i i 0 5 a ( :.;.&.&.;.:.^ w @ & ; q.q.q.q.q.q.q.q.",
"O.O.O.O.O.O.O.@.#.~ A N Q } } [ [ |  .D 9 % * ; q.q.q.q.q.q.q.q.",
"7.7.7.7.7.7.7.9.0.,.X.U L K K K K I U z 3 & = ; q.q.q.q.q.q.q.q.",
"6.6.6.6.6.6.6.8.8.>...U P P P P P U R x 3 & = ; q.q.q.q.q.q.q.q.",
"&.&.&.&.&.&.&.*.-.$.H C J Y Y Y Y E W c 4 & * ; q.q.q.q.q.q.q.q.",
"[ [ [ [ [ [ [ } | G l j Z T Y Y Y E W c 4 & * ; q.q.q.q.q.q.q.q.",
"I I I I I I I U R M s d m E T Y Y E W c 4 & * ; q.q.q.q.q.q.q.q.",
"R R R R R R R ) _ V g f m E T Y Y E W c 4 & * ; q.q.q.q.q.q.q.q.",
"c c c c c c c v v k q p n E T Y Y E W c 4 & * ; q.q.q.q.q.q.q.q.",
"4 4 4 4 4 4 4 6 6 1 > 8 b W T Y Y E W c 4 & * ; q.q.q.q.q.q.q.q.",
"& & & & & & & & & # # 2 c W E Y Y E W c 4 & * ; q.q.q.q.q.q.q.q.",
"* * * * * * * * * % # 2 c W E Y Y E W c 4 & * ; q.q.q.q.q.q.q.q.",
"; ; ; ; ; ; ; ; ; * & 4 c W E Y Y E W c 4 & * ; q.q.q.q.q.q.q.q.",
"q.q.q.q.q.q.q.q.; * & 4 c W E Y Y E W c 4 & * ; q.q.q.q.q.q.q.q.",
"q.q.q.q.q.q.q.q.; * & 4 c W E Y Y E W c 4 & * ; q.q.q.q.q.q.q.q.",
"q.q.q.q.q.q.q.q.q.q.q.q.q.q.q.q.q.q.q.q.q.q.q.q.q.q.q.q.q.q.q.q.",
"q.q.q.q.q.q.q.q.q.q.q.q.q.q.q.q.q.q.q.q.q.q.q.q.q.q.q.q.q.q.q.q.",
"q.q.q.q.q.q.q.q.q.q.q.q.q.q.q.q.q.q.q.q.q.q.q.q.q.q.q.q.q.q.q.q.",
"q.q.q.q.q.q.q.q.q.q.q.q.q.q.q.q.q.q.q.q.q.q.q.q.q.q.q.q.q.q.q.q."
};
