/* XPM */
static char *result[] = {
/* columns rows colors chars-per-pixel */
"32 32 89 1 ",
"  c #3A232F",
". c #3E2631",
"X c #3E2831",
"o c #412C33",
"O c #4B2F35",
"+ c #522F34",
"@ c #443235",
"# c #583335",
"$ c #603837",
"% c #613A39",
"& c #743E38",
"* c #4C463C",
"= c #4D4D3E",
"- c #504F3F",
"; c #4F503E",
": c #50503F",
"> c #66413D",
", c #69443E",
"< c #514F40",
"1 c #525241",
"2 c #6C4740",
"3 c #6C4840",
"4 c #764B41",
"5 c #5C6E4A",
"6 c #5F714B",
"7 c #637B4E",
"8 c #617651",
"9 c #647D51",
"0 c #88473A",
"q c #8B4B3D",
"w c #96513F",
"e c #815042",
"r c #895243",
"t c #945744",
"y c #9B5943",
"u c #A95D44",
"i c #9B6A50",
"p c #A76247",
"a c #AE6145",
"s c #A4644A",
"d c #B56748",
"f c #BD6B49",
"g c #BC714E",
"h c #B37755",
"j c #BC7C57",
"k c #C06D4B",
"l c #C0724D",
"z c #C67750",
"x c #C97B53",
"c c #648D52",
"v c #6A9355",
"b c #6D9857",
"n c #6D9758",
"m c #6D9B59",
"M c #729B5A",
"N c #6CAC5B",
"B c #76A65E",
"V c #74AB5E",
"C c #6DB05F",
"Z c #72B25E",
"A c #75A663",
"S c #76A961",
"D c #77A969",
"F c #6EB160",
"G c #75B661",
"H c #79B661",
"J c #76B862",
"K c #7DBD64",
"L c #7AB26A",
"P c #7DBF6B",
"I c #7EC066",
"U c #BC835C",
"Y c #80BD66",
"T c #C4835B",
"R c #CA885D",
"E c #D58A5C",
"W c #DE9662",
"Q c #E09763",
"! c #EBA56C",
"~ c #EDA86D",
"^ c #F0A86D",
"/ c #82C267",
"( c #84C669",
") c #84C96D",
"_ c #84CC73",
"` c #87D075",
"' c #89D377",
"] c #89D378",
"[ c #8CD87D",
/* pixels */
"((((((((((((((((((((((((((((((((",
"(((()))(((()))(((((((()(((((((((",
"((()`''`_)`]`_)(//(///((()((((((",
"((()'[['_ILDDAMMMMMMMBY/(((()(((",
"((()'[[[(A81111<1<<<15B/((((((((",
"(((((IIIA8*XX....o..o*7B/(((((()",
"(((PFCFN5<o.o.o....ooo*6YY()((()",
"(((PGCCc1X.O>233222%Ooo<MY(((()(",
"((/KKKGc= o%iUUUUUUi$oo:M/((((((",
"MMMMMmM8* o,U!!!!!!U, o-YY((((((",
"11<1111*@. ,U!~!!^!U2oo-vY((((((",
"........  .3U!~!!^!U&oo:vY((((((",
"......... o,U!~!!!!U, o:Y(((((((",
"222,2,222>%ejQWWWWWh&  :Y(((((((",
"UUUUUUUUUhspfxxxxxzs& .*7Y((((()",
"!!!!!!!!!Wxffffffffy$..$YY((()((",
"!!!!!!!^~Qxkfffffffy$..1M/(((()(",
"QWWWQWQWWEzdudgxxxxs%..1M/((((((",
"xxxxxxzxxzfatuTWQQWh2..1M/)(((((",
"ffkffffffkfu0tR!!!!U3..1M//(((((",
"fffffffffffuqtR!!!!U2..1M(((((((",
"yyyytuyyyyyr&rT!!!!U2o.1M(()))((",
"$$#$$$$$$$$#+4TQ!!!U2 .1M(`''`)(",
"  oo... o o X3U!!^!U2..1B)'[[')(",
"o o oo oX.. .,U!!!!U, X1M)][[[_I",
"<<*--*=*:*@..3U!!!!U,oX:M/_II_)(",
"MMnvccvbn9*..2U!!!!U4.o-nKHCFGI(",
"Y(YYZVK/In1..2U!!!!U,o *vGGNNZP(",
"I(((KK(((M<..2j!!!!U,oo*cZZZKII)",
"((((((((/M1..2U!!^!U,oo-cZ((((((",
"((((((((YM1..2U!!!!j,oX:bK((((((",
"(((((((((M1..2U!!!!U,o :M((((((("
};
