/* XPM */
static char *result[] = {
/* columns rows colors chars-per-pixel */
"32 32 88 1 ",
"  c #37202E",
". c #39212E",
"X c #38212F",
"o c #39222F",
"O c #3A222F",
"+ c #3A232F",
"@ c #3B232F",
"# c #3C232F",
"$ c #3C2330",
"% c #3B2430",
"& c #3C2430",
"* c #3D2430",
"= c #3D2530",
"- c #3E2530",
"; c #3F2631",
": c #442831",
"> c #472B33",
", c #523034",
"< c #543134",
"1 c #5C3636",
"2 c #5D3636",
"3 c #5B3A3A",
"4 c #5D3C3B",
"5 c #603A39",
"6 c #65413D",
"7 c #65423E",
"8 c #65433E",
"9 c #66433E",
"0 c #68443F",
"q c #68453F",
"w c #69453F",
"e c #854C3E",
"r c #805143",
"t c #885C4A",
"y c #9D5943",
"u c #9D5A43",
"i c #9E5A43",
"p c #9F5B43",
"a c #A6654A",
"s c #B36E4E",
"d c #BB6948",
"f c #BD6B49",
"g c #BE6C49",
"h c #BF6C49",
"j c #A06E52",
"k c #B87B57",
"l c #C2704C",
"z c #C77750",
"x c #C77952",
"c c #C87850",
"v c #C87A52",
"b c #C97A52",
"n c #CA7B52",
"m c #CB7B52",
"M c #CC7C53",
"N c #CD7C53",
"B c #BF855D",
"V c #C0855D",
"C c #C0865D",
"Z c #C1865E",
"A c #C1875E",
"S c #C2875E",
"D c #C3885E",
"F c #C88A5F",
"G c #D88D5D",
"H c #CB8E61",
"J c #CD9062",
"K c #D99362",
"L c #DF9763",
"P c #E09864",
"I c #E19864",
"U c #E19964",
"Y c #E29964",
"T c #E19F69",
"R c #E9A46B",
"E c #EAA56C",
"W c #EBA66C",
"Q c #EBA76D",
"! c #ECA76D",
"~ c #EDA76D",
"^ c #ECA86D",
"/ c #EDA86D",
"( c #EEA86D",
") c #ECA86E",
"_ c #EFA96E",
"` c #F0A96E",
"' c #F1AA6E",
"] c None",
/* pixels */
"]]]]]]]]]];&@0C``C0@&;]]]]]]]]]]",
"]]]]]]]]]];&@0C``C0@&;]]]]]]]]]]",
"]]]]]]]]]];&@0C``C0@&;]]]]]]]]]]",
"]]]]]]]]]];@.9V``V9.@;]]]]]]]]]]",
"]]]]]]]];;;@ 7B``B7 @;;;]]]]]]]]",
"]]]]]]]];-->3tH((Ht3>--;]]]]]]]]",
"]]]]]]]];*#4jJTWWTJj4#*;]]]]]]]]",
"]]]]]]]];&OwD'~RR~'DwO&;]]]]]]]]",
"]]]]]]]];&+qS_~RR~_Sq+&;]]]]]]]]",
"]]]]]]]];&@0Z(~EE~(Z0@&;]]]]]]]]",
"]]]]]]]];&@0A_/WW/_A0@&;]]]]]]]]",
"]]]]]]]];&@6kYILLIYk6@&;]]]]]]]]",
"]]]]]]]];*%5ambxxbma5%*;]]]]]]]]",
"]]]]]]]];=&2ugfddfgu2&=;]]]]]]]]",
"]]]]]]]];=&2ihfddfhi2&=;]]]]]]]]",
"]]]]]]]];*&2ilzvvzli2&*;]]]]]]]]",
"]]]]]]]];*&1ucGPPGcu1&*;]]]]]]]]",
"]]]]]]]];*&1ymU))Umy1&*;]]]]]]]]",
"]]]]]]]];*&1ynI^^Iny1&*;]]]]]]]]",
"]]]]]]]];*&1ynIQQIny1&*;]]]]]]]]",
"]]]]]]]];*&1ynIQQIny1&*;]]]]]]]]",
"]]]]]]]];*&1ynIQQIny1&*;]]]]]]]]",
"]]]]]]]];*&1ynIQQIny1&*;]]]]]]]]",
"]]]]]]]];*&2iMIQQIMi2&*;]]]]]]]]",
"]]]]]]]];*&2pNIQQINp2&*;]]]]]]]]",
"]]]]]]]];=&<esK!!Kse<&=;]]]]]]]]",
"]]]]]]]];--:,rF__Fr,:--;]]]]]]]]",
"]]]]]]]];;;@X8B``B8X@;;;]]]]]]]]",
"]]]]]]]]]];$o9C``C9o$;]]]]]]]]]]",
"]]]]]]]]]];&@0C``C0@&;]]]]]]]]]]",
"]]]]]]]]]];&@0C``C0@&;]]]]]]]]]]",
"]]]]]]]]]];&@0C``C0@&;]]]]]]]]]]"
};
