/* XPM */
static char *result[] = {
/* columns rows colors chars-per-pixel */
"32 32 232 2 ",
"   c #84C669",
".  c #83C568",
"X  c #83C668",
"o  c #82C267",
"O  c #719A5A",
"+  c #525140",
"@  c #3D2731",
"#  c #3E2530",
"$  c #6C4740",
"%  c #BC835C",
"&  c #ECA66D",
"*  c #3F2530",
"=  c #719B5A",
"-  c #83C368",
";  c #84C76A",
":  c #85C96C",
">  c #85CA6D",
",  c #83C469",
"<  c #729C5B",
"1  c #525241",
"2  c #525240",
"3  c #729C5A",
"4  c #87CF73",
"5  c #89D377",
"6  c #89D277",
"7  c #83C46B",
"8  c #729B5C",
"9  c #525342",
"0  c #515140",
"q  c #719959",
"w  c #82C167",
"e  c #85CA6E",
"r  c #8CD87D",
"t  c #8BD87D",
"y  c #85C973",
"u  c #77AA62",
"i  c #657E52",
"p  c #4D473E",
"a  c #3C2530",
"s  c #3C242F",
"d  c #6A463F",
"f  c #BC825C",
"g  c #EDA66D",
"h  c #4C453C",
"j  c #647C4F",
"k  c #76A65E",
"l  c #80BD66",
"z  c #84C569",
"x  c #89D378",
"c  c #8BD97E",
"v  c #8AD67C",
"b  c #7BB26A",
"n  c #60734D",
"m  c #4D473D",
"M  c #433135",
"N  c #3C2430",
"B  c #433034",
"V  c #4D463C",
"C  c #5F714B",
"Z  c #77A85F",
"A  c #83C468",
"S  c #84C568",
"D  c #83C76B",
"F  c #81C86F",
"G  c #80CA72",
"H  c #7FC771",
"J  c #709E5F",
"K  c #525441",
"L  c #402A32",
"P  c #3F2631",
"I  c #492D34",
"U  c #603E3C",
"Y  c #8D604C",
"T  c #C98D60",
"R  c #EBA66C",
"E  c #3F2630",
"W  c #535441",
"Q  c #7EC066",
"!  c #74B762",
"~  c #6EB260",
"^  c #6DAF5F",
"/  c #669155",
"(  c #50503F",
")  c #3E2731",
"_  c #5F3E3C",
"`  c #9B6A50",
"'  c #C88C60",
"]  c #DF9D68",
"[  c #EAA56C",
"{  c #729B5A",
"}  c #7EBF65",
"|  c #73B45E",
" . c #6CAD5B",
".. c #6BAA5A",
"X. c #638C52",
"o. c #4E4E3E",
"O. c #ECA76D",
"+. c #E9A46B",
"@. c #81C367",
"#. c #7DBE64",
"$. c #7BBD63",
"%. c #79B961",
"&. c #689154",
"*. c #4D4C3D",
"=. c #3D2631",
"-. c #6C4840",
";. c #BE845D",
":. c #EDA76D",
">. c #6D4841",
",. c #83C569",
"<. c #84C769",
"1. c #82C367",
"2. c #6D9657",
"3. c #BD835D",
"4. c #709959",
"5. c #504F3F",
"6. c #ECA76C",
"7. c #EAA56B",
"8. c #69443E",
"9. c #B37755",
"0. c #DE9562",
"q. c #E09763",
"w. c #DE9662",
"e. c #3E2531",
"r. c #633D3A",
"t. c #A4644A",
"y. c #C97B52",
"u. c #CB7C53",
"i. c #C87A53",
"p. c #3E2831",
"a. c #603837",
"s. c #9B5943",
"d. c #BC6C49",
"f. c #BE6C4A",
"g. c #BC6A49",
"h. c #9B5842",
"j. c #BC6B49",
"k. c #BE6C49",
"l. c #C06F4C",
"z. c #C87850",
"x. c #C97B53",
"c. c #5F3837",
"v. c #C67750",
"b. c #D78B5C",
"n. c #DE9663",
"m. c #EAA66C",
"M. c #EBA76D",
"N. c #C87B52",
"B. c #83C369",
"V. c #82C368",
"C. c #535443",
"Z. c #729D5D",
"A. c #84C66C",
"S. c #87D073",
"D. c #7DBF65",
"F. c #82C468",
"G. c #7CBC64",
"H. c #6C9657",
"J. c #51503F",
"K. c #9C5A43",
"L. c #CA7C53",
"P. c #3E2832",
"I. c #535544",
"U. c #739F5E",
"Y. c #84C86D",
"T. c #89D477",
"R. c #7DBF64",
"E. c #72B25E",
"W. c #658E53",
"Q. c #5F3736",
"!. c #E09663",
"~. c #729F5E",
"^. c #88D377",
"/. c #71B25D",
"(. c #77B860",
"). c #77B861",
"_. c #70AF5C",
"`. c #658E52",
"'. c #563234",
"]. c #824B3E",
"[. c #B06D4E",
"{. c #D69161",
"}. c #515242",
"|. c #719C5C",
" X c #81C46A",
".X c #81C96F",
"XX c #80C972",
"oX c #82C467",
"OX c #70B05D",
"+X c #71B15D",
"@X c #76B560",
"#X c #6D9757",
"$X c #525340",
"%X c #452931",
"&X c #573335",
"*X c #855545",
"=X c #C6885E",
"-X c #3F2932",
";X c #4E4F3F",
":X c #6D9859",
">X c #7DBD65",
",X c #75B862",
"<X c #6EB160",
"1X c #84C668",
"2X c #73B35E",
"3X c #77A85E",
"4X c #4C463C",
"5X c #6B4740",
"6X c #422E34",
"7X c #484139",
"8X c #566746",
"9X c #6C9D58",
"0X c #76B660",
"qX c #6CAC5A",
"wX c #80BD65",
"eX c #647B4F",
"rX c #4C443C",
"tX c #3C2531",
"yX c #3D2430",
"uX c #6A4640",
"iX c #4B433B",
"pX c #5F774C",
"aX c #6B9B57",
"sX c #6EA95A",
"dX c #7BBC62",
"fX c #7BBC63",
"gX c #7DBE65",
"hX c #83C669",
"jX c #81C066",
"kX c #7BBA63",
"lX c #80C166",
"zX c white",
/* pixels */
"      . . . . X o O + @ # $ % & & % $ * @ + = -                 ",
"  . . ; : > > : , < 1 @ * $ % & & % $ * @ 2 3 -                 ",
"  . . : 4 5 6 4 7 8 9 @ * $ % & & % $ * @ 0 q w                 ",
"  . . e 5 r t y u i p a s d f g g f d s a h j k l z             ",
"  . . e x c v b n m M N # $ % & & % $ # N B V C Z A             ",
"  S S D F G H J K L P I U Y T R R T Y U I E L W < -             ",
"    z Q ! ~ ^ / ( ) * _ ` ' ] [ [ ] ' ` _ * ) + { -             ",
"    z } |  ...X.o.@ # $ % [ O.+.+.O.[ % $ # @ 2 { -             ",
"      @.#.$.%.&.*.=.# -.;.& :.+.+.:.& ;.>.# @ + { -             ",
"  . .   ,.<.1.2.*.=.# -.3.[ :.[ [ :.[ 3.-.# @ + { -             ",
"  . .     <.- 4.5.@ # $ % [ 6.7.7.6.[ % $ # @ + { -             ",
"          . o = + @ # 8.9.0.q.w.w.q.0.9.8.# @ + { -             ",
"          . o { + ) e.r.t.y.u.i.i.u.y.t.r.e.) + { -             ",
"            - { + p.* a.s.d.f.g.g.f.d.s.a.* p.+ { -             ",
"            - { + p.* a.h.j.k.g.g.k.j.h.a.* p.+ { -             ",
"            - { + ) * a.s.l.z.x.x.z.l.s.a.* ) + { -             ",
"            - { + ) * c.s.v.b.n.n.b.v.s.c.* ) + { -             ",
"            - { + ) * c.s.y.q.m.m.q.y.s.c.* ) + { -             ",
"            - { + ) * c.s.y.q.M.M.q.y.s.c.* ) + { -             ",
"            - { + ) * c.s.N.q.m.m.q.N.s.c.* ) + = o . . . . .   ",
"            - { + ) * c.s.N.q.m.m.q.y.s.c.* ) + = o X . . . .   ",
".           - { + ) * c.s.N.q.m.m.q.N.s.c.* ) 1 < B.: e e : ; . ",
".     z     V.= + ) * c.s.N.q.m.m.q.N.s.c.* ) C.Z.A.S.5 5 4 : . ",
"  @.D.} @.F.G.H.J.) * a.K.L.q.m.m.q.L.K.a.* P.I.U.Y.T.r r 5 e . ",
",.D.| | #.R.E.W.5.) * Q.s.x.!.m.m.!.x.s.c.* P.I.~.Y.5 t t ^.e . ",
"z } | /.(.)._.`.5.p.# '.].[.{.R R {.[.].'.# p.}.|. X.XXXG F D S ",
"  oXR.).OX+X@X#X$XL E %X&X*X=XO.O.=X*X&X%XE -X;X:X>X,X<X<X! Q z ",
".   1X#.2X2XG.3XC 4XB N # 5X% & & % 5Xe.N 6X7X8X9X0X/.qX .| } z ",
".     1.D.D.@.wXk eXrXtXyXuX% g g % uXyXa iXpXaXsXOX).dXfXgX@.  ",
"  . .   hXhXz . jXq 0 @ # $ % g g % $ * @ + 4.kX| | R.1X      . ",
"  . .         X o 3 2 @ * $ % & & % $ * @ 2 3 lX} } oX        . ",
"                - = + @ # $ % & & % $ * @ + O V.  ,.  . .       "
};
